<svg xmlns="http://www.w3.org/2000/svg" version="1.1" xmlns:xlink="http://www.w3.org/1999/xlink" xmlns:svgjs="http://svgjs.dev/svgjs" width="1500" height="1500" viewBox="0 0 1500 1500"><rect width="1500" height="1500" fill="#ffffff"></rect><g transform="matrix(0.6666666666666666,0,0,0.6666666666666666,249.39393939393938,658.8315818357073)"><svg viewBox="0 0 396 72" data-background-color="#ffffff" preserveAspectRatio="xMidYMid meet" height="272" width="1500" xmlns="http://www.w3.org/2000/svg" xmlns:xlink="http://www.w3.org/1999/xlink"><g id="tight-bounds" transform="matrix(1,0,0,1,0.2400000000000091,0.19922485935151713)"><svg viewBox="0 0 395.52 71.60155028129698" height="71.60155028129698" width="395.52"><g><svg viewBox="0 0 500.11651388719906 90.53680652205007" height="71.60155028129698" width="395.52"><g transform="matrix(1,0,0,1,104.59651388719905,15.490477158522058)"><svg viewBox="0 0 395.52 59.555852205005955" height="59.555852205005955" width="395.52"><g id="textblocktransform"><svg viewBox="0 0 395.52 59.555852205005955" height="59.555852205005955" width="395.52" id="textblock"><g><svg viewBox="0 0 395.52 59.555852205005955" height="59.555852205005955" width="395.52"><g transform="matrix(1,0,0,1,0,0)"><svg width="395.52" viewBox="2.69 -36.38 245.77 37.010000000000005" height="59.555852205005955" data-palette-color="#2545d9"><path d="M15.14 0.59L15.14 0.59Q12.52 0.59 10.94-0.31 9.35-1.2 8.5-2.33 7.64-3.47 7.18-4.2L7.18-4.2 6.69-4.2 6.69 0 2.69 0 2.69-36.38 6.84-36.38 6.84-22.95 7.18-22.95Q7.64-23.66 8.47-24.77 9.3-25.88 10.86-26.76 12.43-27.64 15.09-27.64L15.09-27.64Q18.53-27.64 21.14-25.92 23.75-24.19 25.23-21.03 26.71-17.87 26.71-13.57L26.71-13.57Q26.71-9.25 25.24-6.07 23.78-2.88 21.17-1.15 18.55 0.59 15.14 0.59ZM14.6-3.17L14.6-3.17Q17.21-3.17 18.97-4.58 20.73-5.98 21.62-8.35 22.51-10.72 22.51-13.62L22.51-13.62Q22.51-16.5 21.63-18.82 20.75-21.14 19.01-22.51 17.26-23.88 14.6-23.88L14.6-23.88Q12.04-23.88 10.3-22.6 8.57-21.31 7.68-19.01 6.79-16.7 6.79-13.62L6.79-13.62Q6.79-10.55 7.69-8.19 8.59-5.83 10.34-4.5 12.08-3.17 14.6-3.17ZM47.95-11.13L47.95-11.13 47.95-27.29 52.1-27.29 52.1 0 47.95 0 47.95-4.64 47.65-4.64Q46.68-2.56 44.66-1.1 42.65 0.37 39.55 0.34L39.55 0.34Q36.98 0.34 35.01-0.77 33.03-1.88 31.89-4.17 30.76-6.47 30.76-9.96L30.76-9.96 30.76-27.29 34.91-27.29 34.91-10.21Q34.91-7.25 36.61-5.47 38.3-3.69 40.92-3.71L40.92-3.71Q42.48-3.71 44.1-4.5 45.73-5.3 46.84-6.95 47.95-8.59 47.95-11.13ZM78.02 0L56.68 0 56.68-3.17 72.16-23.1 72.16-23.39 57.17-23.39 57.17-27.29 77.53-27.29 77.53-23.93 62.5-4.2 62.5-3.91 78.02-3.91 78.02 0ZM102.73 0L81.39 0 81.39-3.17 96.87-23.1 96.87-23.39 81.88-23.39 81.88-27.29 102.24-27.29 102.24-23.93 87.2-4.2 87.2-3.91 102.73-3.91 102.73 0ZM119.33 0.59L119.33 0.59Q116.71 0.59 115.13-0.31 113.54-1.2 112.69-2.33 111.83-3.47 111.37-4.2L111.37-4.2 110.88-4.2 110.88 0 106.87 0 106.87-36.38 111.03-36.38 111.03-22.95 111.37-22.95Q111.83-23.66 112.66-24.77 113.49-25.88 115.05-26.76 116.62-27.64 119.28-27.64L119.28-27.64Q122.72-27.64 125.33-25.92 127.94-24.19 129.42-21.03 130.9-17.87 130.9-13.57L130.9-13.57Q130.9-9.25 129.43-6.07 127.97-2.88 125.36-1.15 122.74 0.59 119.33 0.59ZM118.79-3.17L118.79-3.17Q121.4-3.17 123.16-4.58 124.92-5.98 125.81-8.35 126.7-10.72 126.7-13.62L126.7-13.62Q126.7-16.5 125.82-18.82 124.94-21.14 123.2-22.51 121.45-23.88 118.79-23.88L118.79-23.88Q116.23-23.88 114.49-22.6 112.76-21.31 111.87-19.01 110.98-16.7 110.98-13.62L110.98-13.62Q110.98-10.55 111.88-8.19 112.78-5.83 114.53-4.5 116.27-3.17 118.79-3.17ZM142.96 0.63L142.96 0.63Q140.37 0.63 138.24-0.35 136.12-1.34 134.88-3.22 133.63-5.1 133.63-7.76L133.63-7.76Q133.63-10.11 134.56-11.56 135.49-13.01 137.04-13.85 138.59-14.7 140.45-15.11 142.32-15.53 144.23-15.77L144.23-15.77Q146.72-16.09 148.27-16.26 149.82-16.43 150.54-16.85 151.26-17.26 151.26-18.26L151.26-18.26 151.26-18.41Q151.26-21.02 149.83-22.47 148.4-23.93 145.5-23.93L145.5-23.93Q142.52-23.93 140.81-22.62 139.1-21.31 138.42-19.82L138.42-19.82 134.41-21.24Q135.49-23.73 137.28-25.12 139.07-26.51 141.19-27.08 143.3-27.64 145.35-27.64L145.35-27.64Q146.67-27.64 148.38-27.33 150.09-27.03 151.71-26.06 153.33-25.1 154.39-23.16 155.46-21.22 155.46-17.97L155.46-17.97 155.46 0 151.26 0 151.26-3.71 151.06-3.71Q150.65-2.83 149.65-1.82 148.64-0.81 147-0.09 145.35 0.63 142.96 0.63ZM143.59-3.13L143.59-3.13Q146.08-3.13 147.79-4.1 149.5-5.08 150.38-6.63 151.26-8.18 151.26-9.86L151.26-9.86 151.26-13.72Q150.99-13.4 150.1-13.15 149.21-12.89 148.05-12.7 146.89-12.5 145.79-12.37 144.69-12.23 144.03-12.16L144.03-12.16Q142.39-11.94 140.98-11.46 139.56-10.99 138.7-10.06 137.83-9.13 137.83-7.52L137.83-7.52Q137.83-5.35 139.45-4.24 141.08-3.13 143.59-3.13ZM180.11-21.14L180.11-21.14 176.35-20.12Q175.82-21.51 174.51-22.77 173.2-24.02 170.44-24.02L170.44-24.02Q167.95-24.02 166.29-22.86 164.63-21.7 164.63-19.97L164.63-19.97Q164.63-18.41 165.77-17.48 166.9-16.55 169.32-15.97L169.32-15.97 173.37-14.99Q177.01-14.11 178.81-12.28 180.6-10.45 180.6-7.62L180.6-7.62Q180.6-5.27 179.26-3.42 177.91-1.56 175.52-0.49 173.13 0.59 169.96 0.59L169.96 0.59Q165.78 0.59 163.06-1.25 160.34-3.08 159.6-6.54L159.6-6.54 163.56-7.52Q164.12-5.32 165.72-4.22 167.32-3.13 169.91-3.13L169.91-3.13Q172.81-3.13 174.56-4.38 176.3-5.64 176.3-7.37L176.3-7.37Q176.3-10.25 172.25-11.23L172.25-11.23 167.71-12.3Q163.95-13.21 162.19-15.06 160.43-16.92 160.43-19.73L160.43-19.73Q160.43-22.05 161.74-23.83 163.05-25.61 165.32-26.62 167.59-27.64 170.44-27.64L170.44-27.64Q174.52-27.64 176.83-25.84 179.14-24.05 180.11-21.14ZM193.29-14.4L188.51-9.96 188.41-15.14 189.29-15.14 201.2-27.29 206.38-27.29 193.68-14.4 193.29-14.4ZM188.75 0L184.6 0 184.6-36.38 188.75-36.38 188.75 0ZM207.26 0L201.89 0 191.24-13.48 194.22-16.41 207.26 0ZM220.88 0.59L220.88 0.59Q216.95 0.59 214.08-1.17 211.21-2.93 209.67-6.09 208.13-9.25 208.13-13.43L208.13-13.43Q208.13-17.63 209.65-20.83 211.16-24.02 213.91-25.83 216.65-27.64 220.34-27.64L220.34-27.64Q222.47-27.64 224.56-26.93 226.66-26.22 228.39-24.63 230.11-23.05 231.13-20.43 232.16-17.82 232.16-14.01L232.16-14.01 232.16-12.21 211.11-12.21 211.11-15.82 229.89-15.82 227.96-14.45Q227.96-17.19 227.1-19.31 226.25-21.44 224.55-22.66 222.86-23.88 220.34-23.88L220.34-23.88Q217.83-23.88 216.03-22.64 214.24-21.41 213.29-19.43 212.33-17.46 212.33-15.19L212.33-15.19 212.33-12.79Q212.33-9.69 213.41-7.54 214.48-5.4 216.41-4.28 218.34-3.17 220.88-3.17L220.88-3.17Q222.51-3.17 223.86-3.65 225.2-4.13 226.18-5.09 227.15-6.05 227.67-7.47L227.67-7.47 231.72-6.3Q231.08-4.25 229.58-2.7 228.08-1.15 225.86-0.28 223.64 0.59 220.88 0.59ZM233.82-27.29L247.93-27.29 247.93-23.73 233.82-23.73 233.82-27.29ZM237.92-6.69L237.92-33.79 242.07-33.79 242.07-7.81Q242.07-5.69 242.95-4.7 243.83-3.71 245.73-3.71L245.73-3.71Q246.14-3.71 246.6-3.76 247.05-3.81 247.58-3.91L247.58-3.91 248.46-0.15Q247.88 0.07 247.04 0.21 246.19 0.34 245.34 0.34L245.34 0.34Q242.04 0.34 239.98-1.61 237.92-3.56 237.92-6.69L237.92-6.69Z" opacity="1" transform="matrix(1,0,0,1,0,0)" fill="#000000" class="wordmark-text-0" data-fill-palette-color="primary" id="text-0"></path></svg></g></svg></g></svg></g></svg></g><g><svg viewBox="0 0 90.53680652205007 90.53680652205007" height="90.53680652205007" width="90.53680652205007"><g><svg xmlns="http://www.w3.org/2000/svg" xmlns:xlink="http://www.w3.org/1999/xlink" version="1.1" viewBox="0 0 96 96" x="0" y="0" height="90.53680652205007" width="90.53680652205007" class="icon-icon-0" data-fill-palette-color="accent" id="icon-0"><path d="M86 96H10C8.896 96 8 95.1 8 94V56C8 54.9 8.896 54 10 54S12 54.9 12 56V92H84V56C84 54.9 84.9 54 86 54S88 54.9 88 56V94C88 95.1 87.1 96 86 96" fill="#000000" data-fill-palette-color="accent"></path><path d="M78 88H18C16.896 88 16 87.1 16 86V56C16 54.9 16.896 54 18 54S20 54.9 20 56V84H76V56C76 54.9 76.9 54 78 54S80 54.9 80 56V86C80 87.1 79.1 88 78 88" fill="#000000" data-fill-palette-color="accent"></path><path d="M87 58C83.916 58 81.368 56.6 79.78 54.272A9.97 9.97 0 0 1 72 58C68.736 58 65.828 56.42 64 53.992 62.172 56.42 59.264 58 56 58S49.828 56.42 48 53.992C46.172 56.42 43.268 58 40 58S33.828 56.42 32 53.992C30.172 56.42 27.268 58 24 58S17.828 56.42 16 53.992C14.172 56.42 11.268 58 8 58 3.588 58 0 53.516 0 48V46C0 45.628 0.104 45.264 0.3 44.948L10.176 28.948A2 2 0 0 1 11.876 28H84C84.688 28 85.332 28.356 85.696 28.94L95.696 44.94C95.9 45.256 96 45.624 96 46V48C96 53.888 92.3 58 87 58M82 48C82 50.764 83.308 54 87 54S92 50.764 92 48V46.58L82.892 32H12.992L4 46.572V48C4 51.252 5.832 54 8 54 11.308 54 14 51.308 14 48 14 46.9 14.896 46 16 46S18 46.9 18 48C18 51.308 20.692 54 24 54S30 51.308 30 48C30 46.9 30.896 46 32 46S34 46.9 34 48C34 51.308 36.692 54 40 54S46 51.308 46 48C46 46.9 46.896 46 48 46S50 46.9 50 48C50 51.308 52.692 54 56 54S62 51.308 62 48C62 46.9 62.9 46 64 46S66 46.9 66 48C66 51.308 68.692 54 72 54S78 51.308 78 48C78 46.9 78.9 46 80 46S82 46.9 82 48" fill="#000000" data-fill-palette-color="accent"></path><path d="M74 20H22C20.896 20 20 19.1 20 18V2C20 0.9 20.896 0 22 0H74C75.1 0 76 0.9 76 2V18C76 19.1 75.1 20 74 20M24 16H72V4H24z" fill="#000000" data-fill-palette-color="accent"></path><path d="M32 20H36V28H32z" fill="#000000" data-fill-palette-color="accent"></path><path d="M60 20H64V28H60z" fill="#000000" data-fill-palette-color="accent"></path></svg></g></svg></g></svg></g><defs></defs></svg><rect width="395.52" height="71.60155028129698" fill="none" stroke="none" visibility="hidden"></rect></g></svg></g></svg>